:FULLY-SPECIFIED
:FORCE-ALL-JOINTS-BE-3DOF
:DEGREES
17
root 7.6123 15.9156 -34.6104 7.06038 -4.13201 -5.53045
lfemur -40.3652 -0.916527 -7.28237
ltibia 19.6918 0 0
lfoot -15.5214 15.6003 0
ltoes -11.6967 0 0
rfemur 5.10266 6.44023 31.373
rtibia 11.647 0 0
rfoot -20.3972 -1.2847 0
rtoes -6.59022 0 0
lowerback -6.21447 1.18318 2.17393
upperback -1.2092 1.35618 2.97151
thorax 2.21621 0.682658 1.9507
lowerneck -19.9886 -4.93278 -11.7266
upperneck 15.9339 -6.47589 14.9605
head 9.21611 -2.21945 6.26786
lclavicle 3.93819e-15 -5.05796e-15 0
lhumerus -39.764 -8.17675 89.8752
lradius 29.2472 0 0
lwrist 7.13269 0 0
lhand -7.54163 -23.0303 0
lfingers 7.12502 0 0
lthumb 18.35 6.12593 0
rclavicle 3.93819e-15 -5.05796e-15 0
rhumerus -41.024 19.2264 -88.2665
rradius 62.4756 0 0
rwrist -35.0463 0 0
rhand -31.4387 -29.3037 0
rfingers 7.12502 0 0
rthumb -4.70673 -59.2315 0
18
root 7.62458 15.9051 -34.4699 7.10456 -4.58978 -5.84029
lfemur -40.3238 -1.40035 -6.35669
ltibia 19.1205 0 0
lfoot -15.8348 16.5661 0
ltoes -10.9616 0 0
rfemur 6.13654 6.56195 31.5827
rtibia 10.6551 0 0
rfoot -19.4265 -1.06051 0
rtoes -6.49163 0 0
lowerback -6.30414 1.30112 2.46433
upperback -1.22728 1.48919 3.03699
thorax 2.25043 0.750658 1.86837
lowerneck -19.9854 -4.9116 -11.7831
upperneck 15.954 -6.42636 14.9343
head 9.21549 -2.20264 6.27605
lclavicle 5.15772e-15 -5.66812e-15 0
lhumerus -39.9775 -8.44893 90.0245
lradius 29.024 0 0
lwrist 7.10323 0 0
lhand -7.57089 -23.216 0
lfingers 7.12502 0 0
lthumb 18.3218 5.94177 0
rclavicle 5.15772e-15 -5.66812e-15 0
rhumerus -41.3123 19.318 -88.6585
rradius 62.63 0 0
rwrist -34.9978 0 0
rhand -31.46 -29.2355 0
rfingers 7.12502 0 0
rthumb -4.72733 -59.1628 0
19
root 7.63687 15.8945 -34.3294 7.12192 -5.0519 -6.09301
lfemur -40.2639 -1.64834 -5.6802
ltibia 18.69 0 0
lfoot -16.0304 17.2354 0
ltoes -10.5633 0 0
rfemur 7.2685 6.71662 31.7327
rtibia 9.49848 0 0
rfoot -18.6051 -0.965217 0
rtoes -6.83488 0 0
lowerback -6.37702 1.41426 2.71823
upperback -1.22749 1.61871 3.07529
thorax 2.29486 0.816891 1.77833
lowerneck -19.9815 -4.88918 -11.7923
upperneck 15.9658 -6.38906 14.9111
head 9.21241 -2.18829 6.27503
lclavicle 5.37961e-15 -6.95746e-15 0
lhumerus -40.2088 -8.689 90.1427
lradius 28.8481 0 0
lwrist 7.0214 0 0
lhand -7.6207 -23.2962 0
lfingers 7.12502 0 0
lthumb 18.2738 5.86544 0
rclavicle 5.37961e-15 -6.95746e-15 0
rhumerus -41.5682 19.3963 -89.053
rradius 62.7376 0 0
rwrist -34.9099 0 0
rhand -31.4242 -29.2481 0
rfingers 7.12502 0 0
rthumb -4.69277 -59.1761 0
20
root 7.65682 15.8804 -34.182 7.09685 -5.55592 -6.2875
lfemur -40.1625 -1.63296 -5.25449
ltibia 18.4221 0 0
lfoot -16.1256 17.6078 0
ltoes -10.551 0 0
rfemur 8.58707 6.94217 31.8253
rtibia 8.03148 0 0
rfoot -17.763 -1.03819 0
rtoes -7.52514 0 0
lowerback -6.41112 1.53572 2.94585
upperback -1.20517 1.76283 3.07355
thorax 2.34314 0.89048 1.66275
lowerneck -19.9592 -4.86354 -11.7405
upperneck 15.952 -6.36703 14.8996
head 9.19817 -2.17698 6.2645
lclavicle 4.40557e-15 -9.75195e-15 0
lhumerus -40.4647 -8.91009 90.2166
lradius 28.7274 0 0
lwrist 6.88476 0 0
lhand -7.70658 -23.2231 0
lfingers 7.12502 0 0
lthumb 18.1912 5.94615 0
rclavicle 4.40557e-15 -9.75195e-15 0
rhumerus -41.7899 19.4514 -89.4691
rradius 62.7946 0 0
rwrist -34.794 0 0
rhand -31.3049 -29.3609 0
rfingers 7.12502 0 0
rthumb -4.57761 -59.2911 0
